P3
        100 50
        255
        80 72 72 79 71 71 79 71 71 79 71 71 79 71 71 79 71 71 78 71 71 78 70 70 78 70 70 78 70 70 78 70 70 77 70 70 77 70 70 77 69 69 77 69 69 77 69 69 76 69 69 76 69 69 76 68 68 76 68 68 75 68 68 75 68 68 75 68 68 75 67 67 75 67 67 74 67 67 74 67 67 74 66 66 74 66 66 73 66 66 73 66 66 73 66 66 73 65 65 72 65 65 72 65 65 72 65 65 72 64 64 71 64 64 71 64 64 71 64 64 70 63 63 70 63 63 70 63 63 70 63 63 69 62 62 69 62 62 69 62 62 68 62 62 68 61 61 68 61 61 237 213 213 237 213 213 237 213 213 237 213 213 237 214 214 237 214 214 238 214 214 238 214 214 238 214 214 238 214 214 238 214 214 238 214 214 238 214 214 238 214 214 238 215 215 238 215 215 238 215 215 238 215 215 238 215 215 238 215 215 238 215 215 238 215 215 238 215 215 238 215 215 238 215 215 238 215 215 238 215 215 238 214 214 238 214 214 238 214 214 238 214 214 238 214 214 238 214 214 238 214 214 238 214 214 238 214 214 238 214 214 238 214 214 238 214 214 238 214 214 238 214 214 237 214 214 237 214 214 237 214 214 237 213 213 237 213 213 237 213 213 237 213 213 237 213 213 0 0 0
79 72 72 79 71 71 79 71 71 79 71 71 79 71 71 79 71 71 78 70 70 78 70 70 78 70 70 78 70 70 78 70 70 77 70 70 77 69 69 77 69 69 77 69 69 76 69 69 76 69 69 76 68 68 76 68 68 76 68 68 75 68 68 75 68 68 75 67 67 75 67 67 74 67 67 74 67 67 74 67 67 74 66 66 74 66 66 73 66 66 73 66 66 73 65 65 73 65 65 72 65 65 72 65 65 72 65 65 71 64 64 71 64 64 71 64 64 71 64 64 70 63 63 70 63 63 70 63 63 70 63 63 69 62 62 69 62 62 69 62 62 68 62 62 68 61 61 68 61 61 236 213 213 236 213 213 237 213 213 237 213 213 237 213 213 237 213 213 237 214 214 237 214 214 237 214 214 238 214 214 238 214 214 238 214 214 238 214 214 238 214 214 238 214 214 238 214 214 238 214 214 238 214 214 238 214 214 238 214 214 238 214 214 238 214 214 238 214 214 238 214 214 238 214 214 238 214 214 238 214 214 238 214 214 238 214 214 238 214 214 238 214 214 238 214 214 238 214 214 238 214 214 238 214 214 238 214 214 237 214 214 237 214 214 237 214 214 237 214 214 237 213 213 237 213 213 237 213 213 237 213 213 237 213 213 237 213 213 237 213 213 237 213 213 236 213 213 0 0 0
79 71 71 79 71 71 79 71 71 79 71 71 79 71 71 78 71 71 78 70 70 78 70 70 78 70 70 78 70 70 77 70 70 77 69 69 77 69 69 77 69 69 77 69 69 76 69 69 76 69 69 76 68 68 76 68 68 76 68 68 75 68 68 75 68 68 75 67 67 75 67 67 74 67 67 74 67 67 74 66 66 74 66 66 73 66 66 73 66 66 73 66 66 73 65 65 72 65 65 72 65 65 72 65 65 72 64 64 71 64 64 71 64 64 71 64 64 71 63 63 70 63 63 70 63 63 70 63 63 69 62 62 69 62 62 69 62 62 69 62 62 68 61 61 68 61 61 68 61 61 236 212 212 236 212 212 236 213 213 236 213 213 237 213 213 237 213 213 237 213 213 237 213 213 237 213 213 237 213 213 237 214 214 237 214 214 237 214 214 238 214 214 238 214 214 238 214 214 238 214 214 238 214 214 238 214 214 238 214 214 238 214 214 238 214 214 238 214 214 238 214 214 238 214 214 238 214 214 238 214 214 238 214 214 238 214 214 238 214 214 237 214 214 237 214 214 237 214 214 237 214 214 237 214 214 237 213 213 237 213 213 237 213 213 237 213 213 237 213 213 237 213 213 237 213 213 237 213 213 237 213 213 237 213 213 236 213 213 236 213 213 236 213 213 236 213 213 0 0 0
79 71 71 79 71 71 79 71 71 79 71 71 78 71 71 78 70 70 78 70 70 78 70 70 78 70 70 78 70 70 77 70 70 77 69 69 77 69 69 77 69 69 76 69 69 76 69 69 76 68 68 76 68 68 76 68 68 75 68 68 75 68 68 75 67 67 75 67 67 74 67 67 74 67 67 74 67 67 74 66 66 74 66 66 73 66 66 73 66 66 73 66 66 73 65 65 72 65 65 72 65 65 72 65 65 72 64 64 71 64 64 71 64 64 71 64 64 70 63 63 70 63 63 70 63 63 70 63 63 69 62 62 69 62 62 69 62 62 68 62 62 68 61 61 68 61 61 68 61 61 235 212 212 235 212 212 236 212 212 236 212 212 236 212 212 236 213 213 236 213 213 237 213 213 237 213 213 237 213 213 237 213 213 237 213 213 237 213 213 237 213 213 237 213 213 237 213 213 237 214 214 237 214 214 237 214 214 237 214 214 237 214 214 237 214 214 237 214 214 237 214 214 237 214 214 237 214 214 237 214 214 237 214 214 237 213 213 237 213 213 237 213 213 237 213 213 237 213 213 237 213 213 237 213 213 237 213 213 237 213 213 237 213 213 237 213 213 237 213 213 237 213 213 236 213 213 236 213 213 236 213 213 236 213 213 236 213 213 236 212 212 236 212 212 236 212 212 0 0 0
79 71 71 79 71 71 79 71 71 79 71 71 78 71 71 78 70 70 78 70 70 78 70 70 78 70 70 77 70 70 77 69 69 77 69 69 77 69 69 77 69 69 76 69 69 76 69 69 76 68 68 76 68 68 76 68 68 75 68 68 75 68 68 75 67 67 75 67 67 74 67 67 74 67 67 74 67 67 74 66 66 73 66 66 73 66 66 73 66 66 73 65 65 72 65 65 72 65 65 72 65 65 72 65 65 71 64 64 71 64 64 71 64 64 71 64 64 70 63 63 70 63 63 70 63 63 70 63 63 69 62 62 69 62 62 69 62 62 68 62 62 68 61 61 68 61 61 67 61 61 235 211 211 235 212 212 235 212 212 235 212 212 236 212 212 236 212 212 236 212 212 236 213 213 236 213 213 236 213 213 236 213 213 237 213 213 237 213 213 237 213 213 237 213 213 237 213 213 237 213 213 237 213 213 237 213 213 237 213 213 237 213 213 237 213 213 237 213 213 237 213 213 237 213 213 237 213 213 237 213 213 237 213 213 237 213 213 237 213 213 237 213 213 237 213 213 237 213 213 237 213 213 237 213 213 237 213 213 236 213 213 236 213 213 236 213 213 236 213 213 236 213 213 236 213 213 236 212 212 236 212 212 236 212 212 236 212 212 236 212 212 236 212 212 236 212 212 0 0 0
79 71 71 79 71 71 79 71 71 78 71 71 78 70 70 78 70 70 78 70 70 78 70 70 77 70 70 77 70 70 77 69 69 77 69 69 77 69 69 76 69 69 76 69 69 76 68 68 76 68 68 76 68 68 75 68 68 75 68 68 75 67 67 75 67 67 75 67 67 74 67 67 74 67 67 74 66 66 74 66 66 73 66 66 73 66 66 73 66 66 73 65 65 72 65 65 72 65 65 72 65 65 72 64 64 71 64 64 71 64 64 71 64 64 71 63 63 70 63 63 70 63 63 70 63 63 69 62 62 69 62 62 69 62 62 69 62 62 68 61 61 68 61 61 68 61 61 67 61 61 234 211 211 235 211 211 235 211 211 235 212 212 235 212 212 235 212 212 236 212 212 236 212 212 236 212 212 236 212 212 236 212 212 236 213 213 236 213 213 236 213 213 236 213 213 236 213 213 236 213 213 236 213 213 237 213 213 237 213 213 237 213 213 237 213 213 237 213 213 237 213 213 237 213 213 237 213 213 237 213 213 237 213 213 236 213 213 236 213 213 236 213 213 236 213 213 236 213 213 236 213 213 236 213 213 236 213 213 236 212 212 236 212 212 236 212 212 236 212 212 236 212 212 236 212 212 236 212 212 236 212 212 236 212 212 235 212 212 235 212 212 235 212 212 235 212 212 0 0 0
79 71 71 79 71 71 79 71 71 78 70 70 78 70 70 78 70 70 78 70 70 78 70 70 77 70 70 77 69 69 77 69 69 77 69 69 77 69 69 76 69 69 76 69 69 76 68 68 76 68 68 76 68 68 75 68 68 75 68 68 75 67 67 75 67 67 74 67 67 74 67 67 74 67 67 74 66 66 73 66 66 73 66 66 73 66 66 73 65 65 72 65 65 72 65 65 72 65 65 72 65 65 71 64 64 71 64 64 71 64 64 71 64 64 70 63 63 70 63 63 70 63 63 70 63 63 69 62 62 69 62 62 69 62 62 68 62 62 68 61 61 68 61 61 68 61 61 67 61 61 234 211 211 234 211 211 234 211 211 235 211 211 235 211 211 235 211 211 235 212 212 235 212 212 235 212 212 236 212 212 236 212 212 236 212 212 236 212 212 236 212 212 236 212 212 236 212 212 236 212 212 236 212 212 236 213 213 236 213 213 236 213 213 236 213 213 236 213 213 236 213 213 236 213 213 236 213 213 236 213 213 236 213 213 236 212 212 236 212 212 236 212 212 236 212 212 236 212 212 236 212 212 236 212 212 236 212 212 236 212 212 236 212 212 236 212 212 236 212 212 236 212 212 235 212 212 235 212 212 235 212 212 235 212 212 235 212 212 235 212 212 235 212 212 235 211 211 0 0 0
79 71 71 79 71 71 78 71 71 78 70 70 78 70 70 78 70 70 78 70 70 77 70 70 77 70 70 77 69 69 77 69 69 77 69 69 76 69 69 76 69 69 76 68 68 76 68 68 76 68 68 75 68 68 75 68 68 75 67 67 75 67 67 75 67 67 74 67 67 74 67 67 74 66 66 74 66 66 73 66 66 73 66 66 73 66 66 73 65 65 72 65 65 72 65 65 72 65 65 72 64 64 71 64 64 71 64 64 71 64 64 71 64 64 70 63 63 70 63 63 70 63 63 70 63 63 69 62 62 69 62 62 69 62 62 68 62 62 68 61 61 68 61 61 68 61 61 67 60 60 233 210 210 234 210 210 234 211 211 234 211 211 234 211 211 235 211 211 235 211 211 235 211 211 235 211 211 235 212 212 235 212 212 235 212 212 235 212 212 235 212 212 236 212 212 236 212 212 236 212 212 236 212 212 236 212 212 236 212 212 236 212 212 236 212 212 236 212 212 236 212 212 236 212 212 236 212 212 236 212 212 236 212 212 236 212 212 236 212 212 236 212 212 236 212 212 236 212 212 236 212 212 236 212 212 235 212 212 235 212 212 235 212 212 235 212 212 235 212 212 235 212 212 235 212 212 235 212 212 235 211 211 235 211 211 235 211 211 235 211 211 235 211 211 235 211 211 0 0 0
79 71 71 78 71 71 78 70 70 78 70 70 78 70 70 78 70 70 78 70 70 77 70 70 77 69 69 77 69 69 77 69 69 77 69 69 76 69 69 76 69 69 76 68 68 76 68 68 75 68 68 75 68 68 75 68 68 75 67 67 75 67 67 74 67 67 74 67 67 74 67 67 74 66 66 73 66 66 73 66 66 73 66 66 73 65 65 73 65 65 72 65 65 72 65 65 72 65 65 72 64 64 71 64 64 71 64 64 71 64 64 71 63 63 70 63 63 70 63 63 78 44 44 73 39 39 72 39 39 76 44 44 69 62 62 68 61 61 68 61 61 68 61 61 67 61 61 67 60 60 233 210 210 233 210 210 233 210 210 234 210 210 234 210 210 234 211 211 234 211 211 234 211 211 235 211 211 235 211 211 235 211 211 235 211 211 235 211 211 235 212 212 235 212 212 235 212 212 235 212 212 235 212 212 235 212 212 235 212 212 235 212 212 235 212 212 235 212 212 235 212 212 235 212 212 235 212 212 235 212 212 235 212 212 235 212 212 235 212 212 235 212 212 235 212 212 235 212 212 235 212 212 235 212 212 235 212 212 235 212 212 235 212 212 235 211 211 235 211 211 235 211 211 235 211 211 235 211 211 235 211 211 235 211 211 235 211 211 234 211 211 234 211 211 234 211 211 0 0 0
79 71 71 78 71 71 78 70 70 78 70 70 78 70 70 78 70 70 77 70 70 77 69 69 77 69 69 77 69 69 77 69 69 76 69 69 76 69 69 76 68 68 76 68 68 76 68 68 75 68 68 75 68 68 75 67 67 75 67 67 75 67 67 74 67 67 74 67 67 74 66 66 74 66 66 73 66 66 73 66 66 73 66 66 73 65 65 72 65 65 72 65 65 72 65 65 72 65 65 71 64 64 71 64 64 71 64 64 75 39 39 64 29 29 59 25 25 56 22 22 55 21 21 53 20 20 52 20 20 52 20 20 72 39 39 79 47 47 95 62 62 139 103 103 67 61 61 67 60 60 233 209 209 233 209 209 233 210 210 233 210 210 233 210 210 234 210 210 234 210 210 234 211 211 234 211 211 234 211 211 234 211 211 234 211 211 235 211 211 235 211 211 235 211 211 235 211 211 235 211 211 235 211 211 235 211 211 235 211 211 235 211 211 235 212 212 235 212 212 235 212 212 235 212 212 235 212 212 235 212 212 235 212 212 235 211 211 235 211 211 235 211 211 235 211 211 235 211 211 235 211 211 235 211 211 235 211 211 235 211 211 235 211 211 235 211 211 235 211 211 234 211 211 234 211 211 234 211 211 234 211 211 234 211 211 234 211 211 234 211 211 234 211 211 234 211 211 0 0 0
78 71 71 78 70 70 78 70 70 78 70 70 78 70 70 77 70 70 77 70 70 77 69 69 77 69 69 77 69 69 76 69 69 76 69 69 76 68 68 76 68 68 76 68 68 75 68 68 75 68 68 75 68 68 75 67 67 75 67 67 74 67 67 74 67 67 74 67 67 74 66 66 73 66 66 73 66 66 73 66 66 73 66 66 73 65 65 72 65 65 72 65 65 72 65 65 72 64 64 71 64 64 72 36 36 62 26 26 57 22 22 55 20 20 53 19 19 52 18 18 51 17 17 50 17 17 49 17 17 54 21 21 54 22 22 55 24 24 58 28 28 64 34 34 79 48 48 121 88 88 232 209 209 232 209 209 233 209 209 233 209 209 233 210 210 233 210 210 233 210 210 233 210 210 234 210 210 234 210 210 234 211 211 234 211 211 234 211 211 234 211 211 234 211 211 234 211 211 234 211 211 234 211 211 235 211 211 235 211 211 235 211 211 235 211 211 235 211 211 235 211 211 235 211 211 235 211 211 235 211 211 235 211 211 235 211 211 235 211 211 235 211 211 235 211 211 235 211 211 234 211 211 234 211 211 234 211 211 234 211 211 234 211 211 234 211 211 234 211 211 234 211 211 234 211 211 234 211 211 234 211 211 234 211 211 234 210 210 234 210 210 234 210 210 234 210 210 0 0 0
78 70 70 78 70 70 78 70 70 78 70 70 78 70 70 77 70 70 77 69 69 77 69 69 77 69 69 77 69 69 76 69 69 76 69 69 76 68 68 76 68 68 76 68 68 75 68 68 75 68 68 75 67 67 75 67 67 75 67 67 74 67 67 74 67 67 74 66 66 74 66 66 73 66 66 73 66 66 73 66 66 73 65 65 72 65 65 72 65 65 72 65 65 72 65 65 87 49 49 65 28 28 59 22 22 56 20 20 54 18 18 53 17 17 52 17 17 51 16 16 50 16 16 49 16 16 48 15 15 49 17 17 48 17 17 48 18 18 49 19 19 50 21 21 53 25 25 61 33 33 87 57 57 232 209 209 232 209 209 232 209 209 233 209 209 233 209 209 233 210 210 233 210 210 233 210 210 233 210 210 233 210 210 234 210 210 234 210 210 234 210 210 234 210 210 234 211 211 234 211 211 234 211 211 234 211 211 234 211 211 234 211 211 234 211 211 234 211 211 234 211 211 234 211 211 234 211 211 234 211 211 234 211 211 234 211 211 234 211 211 234 211 211 234 211 211 234 211 211 234 211 211 234 211 211 234 211 211 234 211 211 234 211 211 234 211 211 234 210 210 234 210 210 234 210 210 234 210 210 234 210 210 234 210 210 234 210 210 233 210 210 233 210 210 233 210 210 0 0 0
78 70 70 78 70 70 78 70 70 78 70 70 77 70 70 77 70 70 77 69 69 77 69 69 77 69 69 76 69 69 76 69 69 76 68 68 76 68 68 76 68 68 75 68 68 75 68 68 75 68 68 75 67 67 75 67 67 74 67 67 74 67 67 74 67 67 74 66 66 74 66 66 73 66 66 73 66 66 73 66 66 73 65 65 72 65 65 72 65 65 72 65 65 77 39 39 62 25 25 57 21 21 55 19 19 54 18 18 53 17 17 52 17 17 51 16 16 50 16 16 49 16 16 48 15 15 48 15 15 47 15 15 46 15 15 46 15 15 45 16 16 45 16 16 46 17 17 48 20 20 59 32 32 74 46 46 140 108 108 232 209 209 232 209 209 232 209 209 232 209 209 233 209 209 233 209 209 233 210 210 233 210 210 233 210 210 233 210 210 233 210 210 233 210 210 234 210 210 234 210 210 234 210 210 234 210 210 234 210 210 234 210 210 234 210 210 234 210 210 234 210 210 234 210 210 234 210 210 234 210 210 234 210 210 234 210 210 234 210 210 234 210 210 234 210 210 234 210 210 234 210 210 234 210 210 234 210 210 234 210 210 234 210 210 234 210 210 234 210 210 233 210 210 233 210 210 233 210 210 233 210 210 233 210 210 233 210 210 233 210 210 233 210 210 233 210 210 0 0 0
78 70 70 78 70 70 78 70 70 77 70 70 77 70 70 77 69 69 77 69 69 77 69 69 77 69 69 76 69 69 76 69 69 76 68 68 76 68 68 76 68 68 75 68 68 75 68 68 75 67 67 75 67 67 74 67 67 74 67 67 74 67 67 74 66 66 74 66 66 73 66 66 73 66 66 73 66 66 73 65 65 72 65 65 72 65 65 72 65 65 76 38 38 62 24 24 57 20 20 55 18 18 54 17 17 53 17 17 52 17 17 51 16 16 51 16 16 50 16 16 49 15 15 48 15 15 47 15 15 47 15 15 46 15 15 45 14 14 44 14 14 43 14 14 43 15 15 43 16 16 51 24 24 55 29 29 69 43 43 134 104 104 232 208 208 232 209 209 232 209 209 232 209 209 232 209 209 232 209 209 233 209 209 233 209 209 233 210 210 233 210 210 233 210 210 233 210 210 233 210 210 233 210 210 233 210 210 233 210 210 233 210 210 233 210 210 233 210 210 233 210 210 233 210 210 233 210 210 233 210 210 233 210 210 233 210 210 233 210 210 233 210 210 233 210 210 233 210 210 233 210 210 233 210 210 233 210 210 233 210 210 233 210 210 233 210 210 233 210 210 233 210 210 233 210 210 233 210 210 233 210 210 233 210 210 233 210 210 233 210 210 233 209 209 233 209 209 0 0 0
78 70 70 78 70 70 78 70 70 77 70 70 77 69 69 77 69 69 77 69 69 77 69 69 76 69 69 76 69 69 76 68 68 76 68 68 76 68 68 75 68 68 75 68 68 75 68 68 75 67 67 75 67 67 74 67 67 74 67 67 74 67 67 74 66 66 73 66 66 73 66 66 73 66 66 73 66 66 73 65 65 72 65 65 72 65 65 82 44 44 62 25 25 57 20 20 55 18 18 54 17 17 53 17 17 52 17 17 52 16 16 51 16 16 50 16 16 50 16 16 49 15 15 48 15 15 47 15 15 46 15 15 45 14 14 45 14 14 44 14 14 43 14 14 42 14 14 41 14 14 47 21 21 49 23 23 53 28 28 69 44 44 181 147 147 231 208 208 231 208 208 232 209 209 232 209 209 232 209 209 232 209 209 232 209 209 232 209 209 232 209 209 233 209 209 233 209 209 233 209 209 233 210 210 233 210 210 233 210 210 233 210 210 233 210 210 233 210 210 233 210 210 233 210 210 233 210 210 233 210 210 233 210 210 233 210 210 233 210 210 233 210 210 233 210 210 233 210 210 233 210 210 233 210 210 233 210 210 233 210 210 233 210 210 233 210 210 233 210 210 233 209 209 233 209 209 233 209 209 233 209 209 233 209 209 232 209 209 232 209 209 232 209 209 232 209 209 0 0 0
78 70 70 78 70 70 77 70 70 77 70 70 77 69 69 77 69 69 77 69 69 76 69 69 76 69 69 76 68 68 76 68 68 76 68 68 76 68 68 75 68 68 75 68 68 75 67 67 75 67 67 74 67 67 74 67 67 74 67 67 74 66 66 74 66 66 73 66 66 73 66 66 73 66 66 73 65 65 72 65 65 72 65 65 72 65 65 64 27 27 58 21 21 55 18 18 54 17 17 53 17 17 53 17 17 52 16 16 52 16 16 51 16 16 50 16 16 49 15 15 49 15 15 48 15 15 47 15 15 46 15 15 45 14 14 44 14 14 43 14 14 42 14 14 41 13 13 40 13 13 46 19 19 46 20 20 47 23 23 53 29 29 76 51 51 231 208 208 231 208 208 231 208 208 231 208 208 232 208 208 232 208 208 232 209 209 232 209 209 232 209 209 232 209 209 232 209 209 232 209 209 232 209 209 232 209 209 232 209 209 233 209 209 233 209 209 233 209 209 233 209 209 233 209 209 233 209 209 233 209 209 233 209 209 233 209 209 233 209 209 233 209 209 233 209 209 233 209 209 233 209 209 233 209 209 233 209 209 233 209 209 233 209 209 232 209 209 232 209 209 232 209 209 232 209 209 232 209 209 232 209 209 232 209 209 232 209 209 232 209 209 232 209 209 232 209 209 0 0 0
78 70 70 77 70 70 77 70 70 77 69 69 77 69 69 77 69 69 77 69 69 76 69 69 76 69 69 76 68 68 76 68 68 76 68 68 75 68 68 75 68 68 75 67 67 75 67 67 75 67 67 74 67 67 74 67 67 74 67 67 74 66 66 73 66 66 73 66 66 73 66 66 73 66 66 73 65 65 72 65 65 72 65 65 70 32 32 59 22 22 56 19 19 54 18 18 54 17 17 53 17 17 52 16 16 52 16 16 51 16 16 51 16 16 50 16 16 49 15 15 48 15 15 48 15 15 47 15 15 46 14 14 45 14 14 44 14 14 43 14 14 42 13 13 41 13 13 40 13 13 45 19 19 45 19 19 45 20 20 47 23 23 56 33 33 102 75 75 231 207 207 231 208 208 231 208 208 231 208 208 231 208 208 231 208 208 231 208 208 232 208 208 232 209 209 232 209 209 232 209 209 232 209 209 232 209 209 232 209 209 232 209 209 232 209 209 232 209 209 232 209 209 232 209 209 232 209 209 232 209 209 232 209 209 232 209 209 232 209 209 232 209 209 232 209 209 232 209 209 232 209 209 232 209 209 232 209 209 232 209 209 232 209 209 232 209 209 232 209 209 232 209 209 232 209 209 232 209 209 232 209 209 232 209 209 232 209 209 232 209 209 232 209 209 232 208 208 0 0 0
78 70 70 77 70 70 77 69 69 77 69 69 77 69 69 77 69 69 76 69 69 76 69 69 76 68 68 76 68 68 76 68 68 75 68 68 75 68 68 75 68 68 75 67 67 75 67 67 74 67 67 74 67 67 74 67 67 74 66 66 74 66 66 73 66 66 73 66 66 73 66 66 73 65 65 72 65 65 72 65 65 98 60 60 62 25 25 57 20 20 55 18 18 54 17 17 53 17 17 53 16 16 52 16 16 51 16 16 51 16 16 50 16 16 50 16 16 49 15 15 48 15 15 47 15 15 47 15 15 46 14 14 45 14 14 44 14 14 43 14 14 42 13 13 41 13 13 39 13 13 45 18 18 44 18 18 43 19 19 44 20 20 48 26 26 68 44 44 230 207 207 230 207 207 230 207 207 231 208 208 231 208 208 231 208 208 231 208 208 231 208 208 231 208 208 231 208 208 231 208 208 231 208 208 232 208 208 232 208 208 232 209 209 232 209 209 232 209 209 232 209 209 232 209 209 232 209 209 232 209 209 232 209 209 232 209 209 232 209 209 232 209 209 232 209 209 232 209 209 232 209 209 232 209 209 232 209 209 232 209 209 232 209 209 232 209 209 232 209 209 232 209 209 232 208 208 232 208 208 232 208 208 232 208 208 231 208 208 231 208 208 231 208 208 231 208 208 0 0 0
77 70 70 77 70 70 77 69 69 77 69 69 77 69 69 76 69 69 76 69 69 76 69 69 76 68 68 76 68 68 76 68 68 75 68 68 75 68 68 75 67 67 75 67 67 75 67 67 74 67 67 74 67 67 74 67 67 74 66 66 73 66 66 73 66 66 73 66 66 73 66 66 73 65 65 72 65 65 72 65 65 70 33 33 59 22 22 55 18 18 54 17 17 53 17 17 53 16 16 52 16 16 52 16 16 52 16 16 56 21 21 50 16 16 49 15 15 49 15 15 48 15 15 47 15 15 46 15 15 45 14 14 44 14 14 43 14 14 42 13 13 41 13 13 40 13 13 39 13 13 44 18 18 43 18 18 42 18 18 42 19 19 44 22 22 55 32 32 106 79 79 230 207 207 230 207 207 230 207 207 230 207 207 230 207 207 231 207 207 231 208 208 231 208 208 231 208 208 231 208 208 231 208 208 231 208 208 231 208 208 231 208 208 231 208 208 231 208 208 231 208 208 231 208 208 231 208 208 231 208 208 231 208 208 231 208 208 231 208 208 231 208 208 231 208 208 231 208 208 231 208 208 231 208 208 231 208 208 231 208 208 231 208 208 231 208 208 231 208 208 231 208 208 231 208 208 231 208 208 231 208 208 231 208 208 231 208 208 231 208 208 231 208 208 231 208 208 0 0 0
77 70 70 77 69 69 77 69 69 77 69 69 77 69 69 76 69 69 76 69 69 76 68 68 76 68 68 76 68 68 75 68 68 75 68 68 75 68 68 75 67 67 75 67 67 74 67 67 74 67 67 74 67 67 74 66 66 74 66 66 73 66 66 73 66 66 73 66 66 73 65 65 72 65 65 72 65 65 72 65 65 64 27 27 57 20 20 54 18 18 53 17 17 53 17 17 52 16 16 52 16 16 51 16 16 127 92 92 166 132 132 50 16 16 49 15 15 48 15 15 47 15 15 47 15 15 46 14 14 45 14 14 44 14 14 43 14 14 42 13 13 41 13 13 40 13 13 39 12 12 44 18 18 43 18 18 42 18 18 41 18 18 42 20 20 48 26 26 76 51 51 229 206 206 229 207 207 230 207 207 230 207 207 230 207 207 230 207 207 230 207 207 230 207 207 230 207 207 231 207 207 231 208 208 231 208 208 231 208 208 231 208 208 231 208 208 231 208 208 231 208 208 231 208 208 231 208 208 231 208 208 231 208 208 231 208 208 231 208 208 231 208 208 231 208 208 231 208 208 231 208 208 231 208 208 231 208 208 231 208 208 231 208 208 231 208 208 231 208 208 231 208 208 231 208 208 231 208 208 231 208 208 231 208 208 231 208 208 231 208 208 231 208 208 231 208 208 0 0 0
77 69 69 77 69 69 77 69 69 77 69 69 76 69 69 76 69 69 76 68 68 76 68 68 76 68 68 75 68 68 75 68 68 75 68 68 75 67 67 75 67 67 74 67 67 74 67 67 74 67 67 74 66 66 74 66 66 73 66 66 73 66 66 73 66 66 73 66 66 73 65 65 72 65 65 72 65 65 88 51 51 60 24 24 55 19 19 53 17 17 53 17 17 52 16 16 52 16 16 51 16 16 51 16 16 58 23 23 52 18 18 49 15 15 48 15 15 48 15 15 47 15 15 46 15 15 45 14 14 44 14 14 44 14 14 43 14 14 42 13 13 41 13 13 39 13 13 38 12 12 44 18 18 42 17 17 41 17 17 40 17 17 40 19 19 45 23 23 63 39 39 229 206 206 229 206 206 229 206 206 229 206 206 229 207 207 230 207 207 230 207 207 230 207 207 230 207 207 230 207 207 230 207 207 230 207 207 230 207 207 230 207 207 230 207 207 230 207 207 231 207 207 231 208 208 231 208 208 231 208 208 231 208 208 231 208 208 231 208 208 231 208 208 231 208 208 231 208 208 231 208 208 231 208 208 231 208 208 231 208 208 231 208 208 231 208 208 231 208 208 231 208 208 231 208 208 231 207 207 230 207 207 230 207 207 230 207 207 230 207 207 230 207 207 230 207 207 0 0 0
77 69 69 77 69 69 77 69 69 76 69 69 76 69 69 76 69 69 76 68 68 76 68 68 76 68 68 75 68 68 75 68 68 75 67 67 75 67 67 75 67 67 74 67 67 74 67 67 74 67 67 74 66 66 74 66 66 73 66 66 73 66 66 73 66 66 73 65 65 72 65 65 72 65 65 72 65 65 74 38 38 58 22 22 54 18 18 53 17 17 52 16 16 52 16 16 51 16 16 51 16 16 50 16 16 50 16 16 49 15 15 49 15 15 48 15 15 47 15 15 46 15 15 46 14 14 45 14 14 44 14 14 43 14 14 42 13 13 41 13 13 40 13 13 39 12 12 38 12 12 43 18 18 42 17 17 41 17 17 40 17 17 39 18 18 43 22 22 56 33 33 134 104 104 229 206 206 229 206 206 229 206 206 229 206 206 229 206 206 229 206 206 229 206 206 230 207 207 230 207 207 230 207 207 230 207 207 230 207 207 230 207 207 230 207 207 230 207 207 230 207 207 230 207 207 230 207 207 230 207 207 230 207 207 230 207 207 230 207 207 230 207 207 230 207 207 230 207 207 230 207 207 230 207 207 230 207 207 230 207 207 230 207 207 230 207 207 230 207 207 230 207 207 230 207 207 230 207 207 230 207 207 230 207 207 230 207 207 230 207 207 230 207 207 230 207 207 0 0 0
77 69 69 77 69 69 77 69 69 76 69 69 76 69 69 76 68 68 76 68 68 76 68 68 75 68 68 75 68 68 75 68 68 75 67 67 75 67 67 74 67 67 74 67 67 74 67 67 74 66 66 74 66 66 73 66 66 73 66 66 73 66 66 73 66 66 73 65 65 72 65 65 72 65 65 72 65 65 69 33 33 56 21 21 53 18 18 52 17 17 51 16 16 51 16 16 51 16 16 50 16 16 50 16 16 49 15 15 49 15 15 48 15 15 47 15 15 47 15 15 46 14 14 45 14 14 44 14 14 43 14 14 43 13 13 42 13 13 41 13 13 40 13 13 38 12 12 37 12 12 43 17 17 41 17 17 40 17 17 39 17 17 38 17 17 42 21 21 53 30 30 106 79 79 228 205 205 228 205 205 228 206 206 229 206 206 229 206 206 229 206 206 229 206 206 229 206 206 229 206 206 229 206 206 229 206 206 229 206 206 230 207 207 230 207 207 230 207 207 230 207 207 230 207 207 230 207 207 230 207 207 230 207 207 230 207 207 230 207 207 230 207 207 230 207 207 230 207 207 230 207 207 230 207 207 230 207 207 230 207 207 230 207 207 230 207 207 230 207 207 230 207 207 230 207 207 230 207 207 230 207 207 230 207 207 230 207 207 230 207 207 230 207 207 230 207 207 0 0 0
77 69 69 77 69 69 76 69 69 76 69 69 76 68 68 76 68 68 76 68 68 76 68 68 75 68 68 75 68 68 75 67 67 75 67 67 75 67 67 74 67 67 74 67 67 74 67 67 74 66 66 74 66 66 73 66 66 73 66 66 73 66 66 73 65 65 72 65 65 72 65 65 72 65 65 72 65 65 66 30 30 55 20 20 52 17 17 51 16 16 51 16 16 50 16 16 50 16 16 50 16 16 49 15 15 49 15 15 48 15 15 47 15 15 47 15 15 46 14 14 45 14 14 45 14 14 44 14 14 43 14 14 42 13 13 41 13 13 40 13 13 39 12 12 38 12 12 37 12 12 42 17 17 41 17 17 39 17 17 38 17 17 38 17 17 41 20 20 51 29 29 96 70 70 228 205 205 228 205 205 228 205 205 228 205 205 228 205 205 228 206 206 228 206 206 229 206 206 229 206 206 229 206 206 229 206 206 229 206 206 229 206 206 229 206 206 229 206 206 229 206 206 229 206 206 229 206 206 229 206 206 229 206 206 229 207 207 229 207 207 230 207 207 230 207 207 230 207 207 230 207 207 230 207 207 230 207 207 230 207 207 230 207 207 230 207 207 229 207 207 229 207 207 229 207 207 229 206 206 229 206 206 229 206 206 229 206 206 229 206 206 229 206 206 229 206 206 0 0 0
77 69 69 76 69 69 76 69 69 76 69 69 76 68 68 76 68 68 76 68 68 75 68 68 75 68 68 75 67 67 75 67 67 75 67 67 74 67 67 74 67 67 74 67 67 74 66 66 74 66 66 73 66 66 73 66 66 73 66 66 73 65 65 73 65 65 72 65 65 72 65 65 72 65 65 72 64 64 65 30 30 55 20 20 52 17 17 51 16 16 50 16 16 50 16 16 49 15 15 49 15 15 48 15 15 48 15 15 47 15 15 47 15 15 46 15 15 45 14 14 45 14 14 44 14 14 43 14 14 42 13 13 41 13 13 40 13 13 39 13 13 38 12 12 37 12 12 36 12 12 41 17 17 40 17 17 39 17 17 38 16 16 38 17 17 41 20 20 51 29 29 94 68 68 227 204 204 227 205 205 227 205 205 228 205 205 228 205 205 228 205 205 228 205 205 228 205 205 228 205 205 228 206 206 228 206 206 229 206 206 229 206 206 229 206 206 229 206 206 229 206 206 229 206 206 229 206 206 229 206 206 229 206 206 229 206 206 229 206 206 229 206 206 229 206 206 229 206 206 229 206 206 229 206 206 229 206 206 229 206 206 229 206 206 229 206 206 229 206 206 229 206 206 229 206 206 229 206 206 229 206 206 229 206 206 229 206 206 229 206 206 229 206 206 229 206 206 0 0 0
77 69 69 76 69 69 76 69 69 76 68 68 76 68 68 76 68 68 75 68 68 75 68 68 75 68 68 75 67 67 75 67 67 74 67 67 74 67 67 74 67 67 74 66 66 74 66 66 73 66 66 73 66 66 73 66 66 73 66 66 73 65 65 72 65 65 72 65 65 72 65 65 72 65 65 72 64 64 65 31 31 54 20 20 51 17 17 50 16 16 49 16 16 49 15 15 49 15 15 48 15 15 48 15 15 47 15 15 47 15 15 46 15 15 45 14 14 45 14 14 44 14 14 43 14 14 42 13 13 42 13 13 41 13 13 40 13 13 39 12 12 38 12 12 37 12 12 36 11 11 41 17 17 39 17 17 38 16 16 37 16 16 38 17 17 41 20 20 52 29 29 100 73 73 227 204 204 227 204 204 227 204 204 227 204 204 227 205 205 227 205 205 228 205 205 228 205 205 228 205 205 228 205 205 228 205 205 228 205 205 228 205 205 228 205 205 228 206 206 228 206 206 228 206 206 229 206 206 229 206 206 229 206 206 229 206 206 229 206 206 229 206 206 229 206 206 229 206 206 229 206 206 229 206 206 229 206 206 229 206 206 229 206 206 229 206 206 229 206 206 229 206 206 229 206 206 229 206 206 229 206 206 229 206 206 229 206 206 229 206 206 229 206 206 229 206 206 0 0 0
76 69 69 76 69 69 76 68 68 76 68 68 76 68 68 75 68 68 75 68 68 75 68 68 75 67 67 75 67 67 75 67 67 74 67 67 74 67 67 74 67 67 74 66 66 74 66 66 73 66 66 73 66 66 73 66 66 73 65 65 73 65 65 72 65 65 72 65 65 72 65 65 72 64 64 71 64 64 68 34 34 54 21 21 51 17 17 49 16 16 49 15 15 48 15 15 48 15 15 48 15 15 47 15 15 47 15 15 46 14 14 45 14 14 45 14 14 44 14 14 43 14 14 43 14 14 42 13 13 41 13 13 40 13 13 39 13 13 38 12 12 37 12 12 36 12 12 35 11 11 40 17 17 39 16 16 37 16 16 37 16 16 38 17 17 42 21 21 54 31 31 117 89 89 226 203 203 226 204 204 226 204 204 227 204 204 227 204 204 227 204 204 227 204 204 227 204 204 227 205 205 227 205 205 228 205 205 228 205 205 228 205 205 228 205 205 228 205 205 228 205 205 228 205 205 179 163 179 187 170 187 190 173 190 190 173 189 188 171 187 182 165 181 174 158 171 228 205 205 228 206 206 228 206 206 228 206 206 228 206 206 228 206 206 228 206 206 228 206 206 228 206 206 228 206 206 228 206 206 228 205 205 228 205 205 228 205 205 228 205 205 228 205 205 228 205 205 0 0 0
76 69 69 76 68 68 76 68 68 76 68 68 76 68 68 75 68 68 75 68 68 75 67 67 75 67 67 75 67 67 74 67 67 74 67 67 74 67 67 74 66 66 74 66 66 73 66 66 73 66 66 73 66 66 73 66 66 73 65 65 72 65 65 72 65 65 72 65 65 72 65 65 72 64 64 71 64 64 75 42 42 54 22 22 50 17 17 49 16 16 48 15 15 48 15 15 47 15 15 47 15 15 46 15 15 46 14 14 45 14 14 45 14 14 44 14 14 43 14 14 43 14 14 42 13 13 41 13 13 40 13 13 39 13 13 38 12 12 37 12 12 36 12 12 35 11 11 34 11 11 39 16 16 38 16 16 37 16 16 37 16 16 37 17 17 39 18 18 59 36 36 183 149 149 226 203 203 226 203 203 226 203 203 226 204 204 226 204 204 226 204 204 227 204 204 227 204 204 227 204 204 227 204 204 227 204 204 227 204 204 227 205 205 227 205 205 227 205 205 185 169 186 195 177 195 198 180 198 200 182 199 200 182 199 200 182 199 199 181 198 198 180 196 195 177 193 189 171 187 174 158 171 228 205 205 228 205 205 228 205 205 228 205 205 228 205 205 228 205 205 228 205 205 228 205 205 228 205 205 228 205 205 228 205 205 228 205 205 228 205 205 228 205 205 228 205 205 0 0 0
76 69 69 76 68 68 76 68 68 76 68 68 75 68 68 75 68 68 75 68 68 75 67 67 75 67 67 74 67 67 74 67 67 74 67 67 74 67 67 74 66 66 74 66 66 73 66 66 73 66 66 73 66 66 73 65 65 72 65 65 72 65 65 72 65 65 72 65 65 72 64 64 71 64 64 71 64 64 71 64 64 56 24 24 50 18 18 48 16 16 47 15 15 47 15 15 46 15 15 46 14 14 45 14 14 45 14 14 44 14 14 44 14 14 43 14 14 43 13 13 42 13 13 41 13 13 40 13 13 39 13 13 39 12 12 38 12 12 37 12 12 36 12 12 34 11 11 33 11 11 38 16 16 37 16 16 37 16 16 37 16 16 37 16 16 40 19 19 47 25 25 225 202 202 225 203 203 225 203 203 225 203 203 226 203 203 226 203 203 226 203 203 226 204 204 226 204 204 226 204 204 227 204 204 227 204 204 227 204 204 227 204 204 186 169 184 177 161 178 194 176 194 199 181 199 200 182 200 201 183 201 201 183 200 201 183 200 201 183 200 200 182 199 200 181 198 198 180 195 194 176 191 182 165 179 228 205 205 228 205 205 228 205 205 228 205 205 228 205 205 228 205 205 228 205 205 228 205 205 228 205 205 228 205 205 228 205 205 228 205 205 228 205 205 227 205 205 0 0 0
76 68 68 76 68 68 76 68 68 75 68 68 75 68 68 75 68 68 75 67 67 75 67 67 75 67 67 74 67 67 74 67 67 74 67 67 74 66 66 74 66 66 73 66 66 73 66 66 73 66 66 73 65 65 73 65 65 72 65 65 72 65 65 72 65 65 72 65 65 71 64 64 71 64 64 71 64 64 71 64 64 59 27 27 50 19 19 47 16 16 46 15 15 46 15 15 45 14 14 45 14 14 45 14 14 44 14 14 44 14 14 43 14 14 42 13 13 42 13 13 41 13 13 40 13 13 39 13 13 39 12 12 38 12 12 37 12 12 36 12 12 35 11 11 34 11 11 33 11 11 34 13 13 33 13 13 37 16 16 37 16 16 38 17 17 41 20 20 53 30 30 224 202 202 225 202 202 225 202 202 225 202 202 225 203 203 225 203 203 225 203 203 226 203 203 226 203 203 226 203 203 226 203 203 226 204 204 226 204 204 226 204 204 179 163 181 196 178 196 200 182 200 201 183 201 202 183 202 202 183 201 202 183 201 201 183 201 201 183 200 201 182 199 200 182 198 200 181 197 198 180 195 194 176 191 183 166 179 227 204 204 227 204 204 227 204 204 227 204 204 227 204 204 227 204 204 227 204 204 227 204 204 227 204 204 227 204 204 227 204 204 227 204 204 227 204 204 0 0 0
76 68 68 76 68 68 76 68 68 75 68 68 75 68 68 75 67 67 75 67 67 75 67 67 74 67 67 74 67 67 74 67 67 74 66 66 74 66 66 73 66 66 73 66 66 73 66 66 73 66 66 73 65 65 72 65 65 72 65 65 72 65 65 72 65 65 72 64 64 71 64 64 71 64 64 71 64 64 71 64 64 71 40 40 51 20 20 47 16 16 46 15 15 45 14 14 44 14 14 44 14 14 44 14 14 43 14 14 43 14 14 42 13 13 41 13 13 41 13 13 40 13 13 39 13 13 39 13 13 38 12 12 37 12 12 36 12 12 35 12 12 34 11 11 33 11 11 32 11 11 33 13 13 33 13 13 33 13 13 34 13 13 35 15 15 39 18 18 85 60 60 135 121 121 224 202 202 224 202 202 224 202 202 225 202 202 225 202 202 225 203 203 225 203 203 225 203 203 225 203 203 26 23 23 26 23 23 26 23 23 46 43 60 194 176 194 200 182 200 201 183 201 202 183 202 202 183 202 202 183 201 201 183 201 201 183 201 201 183 200 201 182 199 200 182 198 200 181 198 199 181 196 197 179 194 193 175 189 178 161 174 227 204 204 227 204 204 227 204 204 227 204 204 227 204 204 227 204 204 227 204 204 227 204 204 227 204 204 227 204 204 227 204 204 227 204 204 0 0 0
76 68 68 76 68 68 75 68 68 75 68 68 75 68 68 75 67 67 75 67 67 74 67 67 74 67 67 74 67 67 74 67 67 74 66 66 74 66 66 73 66 66 73 66 66 73 66 66 73 65 65 73 65 65 72 65 65 72 65 65 72 65 65 72 65 65 71 64 64 71 64 64 71 64 64 71 64 64 71 64 64 70 63 63 54 24 24 47 18 18 45 15 15 44 14 14 44 14 14 43 14 14 43 14 14 43 14 14 42 14 14 41 13 13 41 13 13 40 13 13 39 13 13 39 13 13 38 12 12 37 12 12 36 12 12 35 12 12 34 11 11 33 11 11 32 11 11 31 10 10 33 12 12 33 13 13 33 13 13 34 14 14 36 15 15 45 23 23 130 117 117 130 117 117 130 117 117 130 117 117 131 118 118 131 118 118 118 106 106 118 106 106 118 107 107 26 23 23 26 23 23 26 23 23 26 23 23 115 105 121 40 37 55 39 37 55 39 37 56 201 183 201 201 183 202 201 183 201 201 183 201 201 183 201 201 183 200 201 182 200 200 182 199 200 182 198 199 181 197 199 181 196 198 180 195 196 178 192 189 171 185 191 173 182 226 204 204 226 204 204 226 204 204 226 204 204 226 204 204 226 204 204 226 204 204 226 204 204 226 204 204 226 204 204 226 204 204 0 0 0
76 68 68 75 68 68 75 68 68 75 68 68 75 67 67 75 67 67 75 67 67 74 67 67 74 67 67 74 67 67 74 66 66 74 66 66 73 66 66 73 66 66 73 66 66 73 66 66 73 65 65 72 65 65 72 65 65 72 65 65 72 65 65 72 64 64 71 64 64 71 64 64 71 64 64 71 64 64 70 63 63 70 63 63 71 42 42 50 21 21 45 16 16 44 15 15 43 14 14 42 14 14 42 14 14 41 13 13 41 13 13 40 13 13 40 13 13 39 13 13 38 13 13 38 12 12 37 12 12 36 12 12 35 12 12 34 11 11 33 11 11 32 11 11 31 10 10 31 10 10 33 12 12 33 13 13 34 13 13 35 14 14 38 17 17 96 70 70 113 102 102 113 102 102 113 102 102 113 102 102 113 102 102 114 102 102 114 102 102 114 102 102 114 103 103 114 103 103 48 44 44 48 44 44 48 44 44 62 58 75 57 53 71 58 54 72 39 37 55 39 37 55 39 37 55 206 188 206 203 184 203 201 182 200 200 182 200 200 182 199 200 182 199 200 181 198 199 181 197 199 180 196 198 180 195 197 178 193 193 175 188 179 163 175 226 203 203 226 203 203 226 203 203 226 203 203 226 203 203 226 203 203 226 203 203 226 203 203 226 203 203 226 203 203 226 203 203 0 0 0
75 68 68 75 68 68 75 68 68 75 67 67 75 67 67 75 67 67 74 67 67 74 67 67 74 67 67 74 66 66 74 66 66 73 66 66 73 66 66 73 66 66 73 66 66 73 65 65 72 65 65 72 65 65 73 83 67 74 85 68 73 84 68 76 84 69 70 77 64 77 70 70 77 69 69 77 69 69 77 69 69 77 69 69 77 69 69 57 29 29 47 19 19 44 16 16 42 14 14 41 14 14 41 13 13 40 13 13 40 13 13 39 13 13 39 13 13 38 12 12 37 12 12 37 12 12 36 12 12 35 12 12 34 11 11 33 11 11 32 11 11 31 10 10 30 10 10 30 10 10 32 12 12 33 12 12 34 14 14 36 15 15 50 28 28 109 98 98 109 98 98 109 98 98 109 98 98 109 98 98 109 98 98 109 98 98 109 99 99 110 99 99 110 99 99 110 99 99 110 99 99 110 99 99 48 44 44 58 53 70 57 53 71 57 53 72 58 54 72 58 54 72 57 54 72 173 164 182 127 117 135 119 109 126 119 109 126 200 181 199 199 181 198 199 181 197 199 180 196 198 180 196 198 179 194 197 178 193 194 176 189 184 167 179 226 203 203 226 203 203 226 203 203 226 203 203 226 203 203 226 203 203 226 203 203 226 203 203 226 203 203 226 203 203 226 203 203 0 0 0
75 68 68 75 68 68 75 68 68 75 67 67 75 67 67 74 67 67 74 67 67 74 67 67 74 67 67 74 66 66 74 66 66 73 66 66 73 66 66 73 66 66 73 65 65 78 70 70 78 89 72 80 92 74 80 91 74 79 90 73 79 89 72 78 87 71 77 84 70 73 79 66 67 72 61 76 69 69 76 69 69 76 68 68 76 68 68 76 68 68 52 25 25 45 18 18 42 15 15 40 14 14 40 13 13 39 13 13 39 13 13 38 13 13 38 12 12 37 12 12 36 12 12 35 12 12 35 11 11 34 11 11 32 10 10 31 10 10 30 10 10 30 10 10 30 10 10 31 10 10 33 12 12 34 13 13 35 15 15 44 22 22 105 94 94 105 94 94 105 94 94 105 94 94 105 95 95 105 95 95 105 95 95 105 95 95 106 95 95 106 95 95 106 95 95 106 95 95 106 95 95 106 96 96 106 96 96 100 91 108 104 95 113 105 96 114 105 96 114 105 96 114 105 96 114 105 96 114 116 106 124 116 106 123 115 106 123 115 106 123 115 105 122 115 105 121 115 105 121 114 105 120 114 104 119 196 178 192 194 176 190 187 169 182 225 203 203 225 203 203 225 203 203 225 203 203 225 203 203 225 203 203 225 203 203 225 203 203 225 203 203 225 203 203 225 203 203 0 0 0
75 68 68 75 68 68 75 67 67 75 67 67 75 67 67 74 67 67 74 67 67 74 67 67 78 70 70 78 70 70 78 70 70 78 70 70 77 70 70 77 70 70 77 69 69 79 91 73 80 92 74 80 92 74 80 91 73 79 90 73 78 88 72 77 87 71 77 85 71 75 83 69 73 79 66 58 57 46 76 68 68 75 68 68 75 68 68 75 68 68 75 68 68 50 24 24 43 18 18 41 15 15 39 13 13 38 13 13 37 13 13 37 12 12 36 12 12 36 12 12 35 12 12 34 11 11 33 11 11 32 10 10 31 10 10 30 10 10 30 10 10 30 10 10 31 11 11 31 11 11 34 14 14 36 15 15 43 22 22 101 91 91 101 91 91 101 91 91 101 91 91 101 91 91 101 91 91 101 91 91 102 91 91 102 92 92 102 92 92 102 92 92 102 92 92 102 92 92 102 92 92 102 92 92 103 92 92 102 92 109 101 93 110 101 93 111 102 93 111 102 93 111 102 93 111 113 103 121 113 103 121 112 103 120 112 103 120 112 103 120 112 103 119 112 102 118 112 102 118 111 102 117 111 101 116 111 101 115 111 101 114 112 102 115 158 144 155 120 108 108 120 108 108 121 109 109 225 202 202 225 202 202 225 202 202 225 202 202 225 202 202 225 202 202 225 202 202 0 0 0
75 68 68 78 71 71 78 70 70 78 70 70 78 70 70 78 70 70 78 70 70 78 70 70 77 70 70 77 70 70 77 69 69 77 69 69 77 69 69 77 69 69 78 90 72 80 92 74 80 92 74 80 91 73 79 90 73 78 89 72 77 87 71 77 86 71 76 84 70 75 83 69 73 80 67 71 76 64 75 67 67 75 67 67 75 67 67 75 67 67 74 67 67 74 67 67 51 27 27 43 18 18 40 15 15 37 13 13 37 13 13 36 12 12 34 11 11 34 11 11 33 11 11 32 11 11 32 10 10 31 10 10 30 10 10 31 10 10 31 11 11 31 11 11 32 12 12 34 13 13 37 16 16 46 24 24 97 88 88 97 88 88 98 88 88 98 88 88 98 88 88 98 88 88 98 88 88 98 88 88 98 88 88 98 88 88 98 88 88 98 89 89 99 89 89 99 89 89 99 89 89 99 89 89 99 89 89 101 92 109 98 90 107 98 90 108 98 90 108 109 100 118 109 100 118 109 100 118 109 100 118 109 100 117 109 100 117 109 100 117 109 100 116 109 100 115 109 99 115 108 99 114 108 99 113 107 98 112 107 98 111 106 96 108 98 90 100 117 105 105 117 105 105 117 106 106 118 106 106 118 106 106 118 106 106 118 107 107 119 107 107 119 107 107 119 107 107 0 0 0
78 70 70 78 70 70 78 70 70 77 70 70 77 70 70 77 69 69 77 69 69 77 69 69 77 69 69 77 69 69 76 69 69 76 69 69 76 69 69 76 68 68 80 92 74 80 92 74 79 91 73 98 109 92 78 89 72 77 88 71 77 87 71 76 85 70 75 83 69 74 82 68 73 80 67 72 78 66 64 66 54 74 67 67 74 67 67 74 67 67 74 66 66 74 66 66 74 66 66 60 36 36 44 21 21 39 16 16 36 14 14 35 12 12 34 12 12 33 12 12 32 11 11 31 11 11 31 11 11 31 11 11 31 11 11 32 11 11 32 12 12 34 13 13 34 14 14 39 18 18 63 40 40 94 85 85 94 85 85 94 85 85 94 85 85 94 85 85 94 85 85 94 85 85 95 85 85 95 85 85 95 85 85 95 85 85 95 85 85 95 86 86 95 86 86 95 86 86 95 86 86 96 86 86 96 86 86 99 91 107 96 88 104 106 97 114 106 97 114 106 97 115 107 98 115 107 98 115 107 98 115 107 98 114 106 97 114 106 97 114 106 97 113 106 97 112 106 97 112 105 96 111 105 96 110 104 95 109 103 94 107 100 91 103 113 102 102 114 102 102 114 102 102 114 103 103 114 103 103 115 103 103 115 103 103 115 104 104 116 104 104 116 104 104 116 105 105 0 0 0
77 70 70 77 69 69 77 69 69 77 69 69 77 69 69 77 69 69 76 69 69 76 69 69 76 68 68 76 68 68 76 68 68 76 68 68 76 68 68 76 88 71 79 91 73 79 91 73 79 90 72 80 91 74 77 88 71 77 87 71 76 85 70 75 84 69 74 82 68 73 81 67 72 79 66 72 78 66 68 73 61 74 66 66 73 66 66 73 66 66 73 66 66 73 66 66 73 66 66 73 66 66 73 66 66 54 32 32 42 21 21 38 17 17 35 15 15 34 14 14 34 13 13 33 13 13 33 13 13 33 13 13 34 14 14 35 15 15 36 15 15 39 18 18 50 28 28 57 51 51 91 82 82 91 82 82 91 82 82 91 82 82 91 82 82 91 82 82 91 82 82 91 82 82 91 82 82 91 82 82 92 82 82 92 83 83 92 83 83 92 83 83 92 83 83 92 83 83 92 83 83 92 83 83 106 96 96 106 97 111 104 95 111 103 95 111 103 95 111 104 95 112 104 95 112 104 95 112 104 95 112 104 95 111 104 95 111 104 95 111 103 95 110 103 94 109 103 94 109 103 94 108 102 93 107 91 83 96 89 82 94 98 90 102 97 87 87 97 88 88 111 100 100 111 100 100 111 100 100 112 100 100 112 101 101 112 101 101 112 101 101 113 102 102 113 102 102 0 0 0
77 69 69 76 69 69 76 69 69 76 69 69 76 68 68 76 68 68 76 68 68 76 68 68 75 68 68 75 68 68 75 68 68 75 68 68 75 67 67 78 89 72 78 90 72 78 90 72 78 89 72 77 88 71 76 87 70 76 86 70 75 84 69 74 83 68 73 81 67 72 79 66 72 78 66 72 78 66 69 74 62 73 66 66 73 66 66 73 66 66 73 65 65 73 65 65 72 65 65 72 65 65 72 65 65 72 65 65 72 65 65 57 51 51 54 31 31 46 24 24 43 22 22 42 20 20 39 18 18 40 19 19 42 21 21 49 27 27 57 49 49 56 51 51 56 51 51 56 51 51 88 79 79 88 79 79 88 79 79 88 79 79 88 79 79 88 79 79 88 79 79 88 80 80 88 80 80 89 80 80 89 80 80 89 80 80 89 80 80 103 93 93 103 93 93 103 93 93 103 93 93 103 93 93 104 93 93 104 93 93 104 95 110 101 93 108 101 92 108 101 92 109 101 92 109 101 92 109 101 92 109 101 92 108 101 92 108 90 82 98 90 82 97 89 82 97 89 82 96 89 81 95 88 81 94 88 80 93 86 78 90 79 72 84 94 85 85 94 85 85 95 85 85 95 85 85 95 86 86 96 86 86 96 86 86 109 98 98 110 99 99 110 99 99 110 99 99 0 0 0
76 68 68 76 68 68 76 68 68 76 68 68 75 68 68 75 68 68 75 68 68 75 68 68 75 67 67 75 67 67 75 67 67 74 67 67 74 67 67 78 89 71 77 89 71 77 88 71 77 88 71 76 87 70 76 86 70 75 84 69 74 83 68 73 81 67 72 80 67 72 78 66 71 77 65 71 77 65 70 76 64 73 65 65 72 65 65 72 65 65 72 65 65 72 65 65 72 65 65 72 65 65 72 65 65 72 65 65 69 59 59 66 56 56 50 42 42 50 42 42 50 42 42 50 42 42 50 42 42 50 42 42 50 42 42 50 42 42 50 42 42 52 43 43 58 49 49 56 50 50 85 77 77 85 77 77 85 77 77 85 77 77 85 77 77 86 77 77 86 77 77 86 77 77 100 90 90 100 90 90 100 90 90 100 90 90 100 90 90 100 90 90 101 90 90 101 91 91 101 91 91 101 91 91 101 91 91 101 91 91 98 90 103 100 92 107 99 90 106 98 90 106 98 90 106 98 90 106 87 80 95 87 80 95 87 80 95 87 80 95 87 80 94 87 79 94 86 79 93 86 79 92 85 78 91 84 77 89 93 85 97 91 82 82 91 82 82 92 82 82 92 83 83 92 83 83 92 83 83 93 83 83 93 84 84 93 84 84 94 84 84 107 96 96 107 97 97 0 0 0
75 68 68 75 68 68 75 68 68 75 68 68 75 67 67 75 67 67 75 67 67 74 67 67 74 67 67 74 67 67 74 67 67 74 67 67 74 66 66 75 85 69 76 87 70 76 87 70 76 86 70 75 85 69 75 84 69 74 83 68 73 82 67 72 80 67 72 78 66 71 77 65 71 77 65 71 77 65 66 72 60 72 65 65 72 65 65 72 65 65 72 65 65 72 64 64 72 64 64 56 51 51 70 60 60 67 57 57 65 56 56 65 55 55 65 55 55 64 55 55 64 55 55 64 55 55 64 55 55 64 55 55 64 55 55 64 55 55 64 55 55 64 55 55 65 55 55 66 57 57 78 67 67 97 88 88 97 88 88 97 88 88 97 88 88 97 88 88 97 88 88 98 88 88 98 88 88 98 88 88 98 88 88 98 88 88 98 88 88 98 88 88 98 88 88 98 88 88 98 88 88 98 88 88 98 89 89 99 89 89 99 89 89 102 93 107 98 90 104 96 88 103 85 78 93 85 78 93 84 78 92 84 77 92 84 77 92 84 77 91 84 77 91 84 77 90 83 76 90 83 76 88 82 75 87 89 82 94 77 70 78 88 79 79 89 80 80 89 80 80 89 80 80 89 80 80 90 81 81 90 81 81 90 81 81 91 82 82 91 82 82 105 94 94 105 94 94 0 0 0
75 67 67 75 67 67 75 67 67 74 67 67 74 67 67 74 67 67 74 67 67 74 67 67 74 66 66 74 66 66 74 66 66 73 66 66 73 66 66 73 66 66 74 84 67 75 85 69 75 85 69 74 84 68 74 83 68 73 81 67 72 80 66 71 79 66 71 77 65 70 77 65 70 77 65 69 76 64 56 51 51 56 51 51 56 50 50 56 50 50 56 50 50 56 50 50 56 50 50 52 44 44 50 43 43 50 42 42 50 42 42 65 55 55 64 55 55 64 55 55 64 55 55 64 55 55 64 55 55 64 55 55 64 55 55 64 55 55 64 55 55 64 55 55 64 55 55 64 55 55 66 57 57 70 61 61 95 86 86 95 86 86 95 86 86 95 86 86 95 86 86 95 86 86 95 86 86 95 86 86 95 86 86 95 86 86 96 86 86 96 86 86 96 86 86 96 86 86 96 86 86 96 86 86 96 86 86 96 87 87 96 87 87 96 87 87 100 91 104 97 88 102 84 77 91 83 76 90 82 75 90 82 75 89 82 75 89 82 75 89 82 75 88 81 74 87 80 73 86 84 77 89 88 81 93 66 60 71 86 77 77 86 77 77 86 77 77 86 78 78 87 78 78 87 78 78 87 78 78 87 79 79 88 79 79 88 79 79 88 80 80 102 92 92 102 92 92 0 0 0
74 67 67 74 67 67 74 67 67 74 67 67 74 66 66 74 66 66 74 66 66 73 66 66 73 66 66 73 66 66 73 66 66 73 66 66 73 66 66 73 65 65 72 81 66 73 82 67 74 83 68 73 82 67 73 81 67 72 80 66 71 78 65 70 77 65 58 65 53 58 65 53 58 65 53 58 65 53 56 50 50 56 50 50 56 50 50 55 50 50 55 50 50 55 50 50 52 44 44 50 43 43 50 42 42 49 42 42 65 56 56 64 55 55 64 55 55 64 55 55 64 55 55 64 55 55 64 55 55 64 55 55 64 55 55 64 55 55 64 55 55 64 55 55 64 55 55 64 55 55 65 56 56 66 57 57 69 60 60 93 84 84 93 84 84 93 84 84 93 84 84 93 84 84 93 84 84 93 84 84 93 84 84 93 84 84 93 84 84 93 84 84 93 84 84 94 84 84 94 84 84 94 84 84 94 85 85 94 85 85 94 85 85 94 85 85 94 85 85 95 85 85 90 82 95 85 78 91 82 75 88 81 75 88 81 74 87 81 74 87 81 74 87 83 76 88 85 78 90 89 82 93 83 74 74 83 75 75 83 75 75 83 75 75 84 75 75 84 76 76 84 76 76 84 76 76 85 76 76 85 77 77 85 77 77 99 89 89 100 90 90 100 90 90 100 90 90 0 0 0
74 66 66 74 66 66 74 66 66 73 66 66 73 66 66 73 66 66 73 66 66 73 66 66 73 66 66 73 65 65 73 65 65 72 65 65 72 65 65 72 65 65 72 65 65 71 79 65 72 80 65 72 80 66 71 79 65 71 78 65 57 65 53 57 65 53 57 65 53 57 65 53 57 64 52 55 50 50 55 50 50 55 50 50 55 50 50 55 49 49 55 49 49 52 44 44 50 43 43 50 42 42 65 56 56 65 56 56 64 56 56 64 56 56 64 56 56 64 56 56 64 56 56 64 56 56 64 56 56 64 56 56 64 55 55 64 55 55 64 55 55 64 55 55 64 55 55 64 55 55 65 56 56 65 56 56 66 57 57 71 62 62 91 82 82 91 82 82 91 82 82 91 82 82 91 82 82 91 82 82 91 82 82 91 82 82 91 82 82 91 82 82 91 82 82 92 82 82 92 82 82 92 83 83 92 83 83 92 83 83 92 83 83 92 83 83 92 83 83 92 83 83 79 71 73 70 63 65 80 74 86 74 67 80 70 65 78 71 65 78 91 83 95 85 78 90 80 72 72 80 72 72 80 72 72 81 73 73 81 73 73 81 73 73 81 73 73 82 73 73 82 74 74 82 74 74 82 74 74 97 87 87 97 87 87 97 87 87 97 88 88 98 88 88 98 88 88 0 0 0
73 66 66 73 66 66 73 66 66 73 66 66 73 66 66 73 65 65 73 65 65 72 65 65 72 65 65 72 65 65 72 65 65 72 65 65 72 65 65 72 65 65 72 64 64 72 64 64 68 75 62 70 77 64 58 66 54 57 65 53 57 65 53 58 65 53 57 65 53 55 49 49 55 49 49 55 49 49 55 49 49 55 49 49 55 49 49 55 49 49 52 45 45 66 57 57 65 56 56 65 56 56 65 56 56 65 56 56 65 56 56 64 56 56 64 56 56 64 56 56 64 56 56 64 56 56 64 56 56 64 56 56 64 56 56 64 56 56 64 56 56 64 56 56 64 56 56 64 56 56 65 56 56 65 56 56 65 56 56 66 57 57 73 64 64 89 80 80 89 80 80 89 80 80 89 80 80 89 80 80 89 80 80 89 80 80 89 80 80 89 80 80 90 81 81 90 81 81 90 81 81 90 81 81 90 81 81 90 81 81 90 81 81 90 81 81 84 76 77 85 76 78 86 77 79 86 78 79 86 78 79 86 78 79 72 65 67 72 65 67 71 64 66 70 63 65 78 70 70 78 70 70 78 70 70 79 71 71 79 71 71 79 71 71 93 84 84 94 84 84 94 84 84 94 85 85 94 85 85 94 85 85 95 85 85 95 85 85 95 86 86 96 86 86 96 86 86 0 0 0
73 66 66 73 65 65 73 65 65 73 65 65 72 65 65 72 65 65 72 65 65 72 65 65 72 65 65 72 65 65 72 65 65 72 64 64 71 64 64 71 64 64 71 64 64 71 64 64 71 64 64 71 64 64 54 50 49 54 51 49 54 51 49 54 51 49 54 51 49 54 50 49 54 49 49 54 49 49 54 49 49 70 63 63 70 63 63 71 62 62 66 57 57 66 57 57 65 56 56 65 56 56 65 56 56 65 56 56 65 56 56 65 56 56 65 56 56 64 56 56 64 56 56 64 56 56 64 56 56 64 56 56 64 56 56 64 56 56 64 56 56 64 56 56 64 56 56 64 56 56 65 56 56 65 56 56 65 56 56 65 57 57 68 59 59 87 79 79 87 79 79 87 79 79 87 79 79 87 79 79 87 79 79 88 79 79 88 79 79 88 79 79 88 79 79 88 79 79 88 79 79 88 79 79 88 79 79 88 79 79 88 79 79 83 75 76 84 76 77 84 76 78 85 76 78 85 76 78 85 77 78 85 77 78 85 77 78 85 77 78 85 77 78 85 76 78 84 76 78 84 76 78 91 81 81 91 82 82 91 82 82 91 82 82 91 82 82 92 82 82 92 83 83 92 83 83 92 83 83 93 83 83 93 84 84 93 84 84 93 84 84 94 84 84 94 84 84 0 0 0
72 65 65 72 65 65 72 65 65 72 65 65 72 65 65 72 65 65 72 65 65 72 64 64 72 64 64 71 64 64 71 64 64 71 64 64 71 64 64 71 64 64 71 64 64 71 64 64 70 64 63 71 66 64 70 65 64 70 65 63 70 65 63 70 65 63 70 64 63 70 64 63 70 64 63 69 64 62 70 63 63 70 63 63 70 63 63 67 58 58 66 57 57 65 57 57 65 56 56 65 56 56 65 56 56 65 56 56 65 56 56 65 56 56 65 56 56 65 56 56 64 56 56 64 56 56 64 56 56 64 56 56 64 56 56 64 56 56 64 56 56 64 56 56 64 56 56 64 56 56 65 57 57 65 57 57 65 57 57 65 57 57 66 58 58 70 61 61 86 77 77 86 77 77 86 77 77 86 77 77 86 77 77 86 77 77 86 77 77 86 77 77 86 77 77 86 78 78 86 78 78 86 78 78 86 78 78 86 78 78 80 72 74 83 74 76 83 75 76 83 75 77 83 75 77 83 75 77 84 75 77 84 75 77 84 76 77 84 76 77 84 76 77 84 76 77 84 76 77 83 75 76 84 75 77 89 80 80 89 80 80 89 80 80 90 81 81 90 81 81 90 81 81 90 81 81 90 81 81 91 82 82 91 82 82 91 82 82 91 82 82 92 83 83 92 83 83 0 0 0
72 65 65 72 65 65 72 65 65 72 65 65 72 64 64 71 64 64 71 64 64 71 64 64 71 64 64 71 64 64 71 64 64 71 64 64 71 64 64 71 64 64 70 63 63 70 64 63 70 64 63 70 65 63 70 64 63 70 64 63 70 64 63 70 64 63 70 64 63 69 64 63 69 64 63 69 64 62 69 62 62 69 62 62 69 60 60 66 57 57 66 57 57 66 57 57 65 57 57 65 57 57 65 57 57 65 57 57 65 56 56 65 56 56 65 56 56 65 56 56 65 56 56 64 56 56 64 56 56 64 56 56 64 56 56 64 56 56 64 56 56 64 56 56 64 56 56 64 56 56 65 57 57 65 57 57 65 57 57 65 57 57 65 57 57 67 59 59 84 76 76 84 76 76 84 76 76 84 76 76 84 76 76 84 76 76 84 76 76 84 76 76 84 76 76 85 76 76 85 76 76 85 76 76 85 76 76 81 73 74 81 73 74 82 74 75 82 74 75 82 74 75 82 74 75 82 74 76 82 74 76 82 74 76 82 74 76 83 74 76 83 75 76 83 75 76 83 75 76 83 75 76 82 74 75 82 74 75 87 79 79 88 79 79 88 79 79 88 79 79 88 79 79 89 80 80 89 80 80 89 80 80 89 80 80 89 81 81 90 81 81 90 81 81 90 81 81 0 0 0
0 0 0 0 0 0 0 0 0 0 0 0 0 0 0 0 0 0 0 0 0 0 0 0 0 0 0 0 0 0 0 0 0 0 0 0 0 0 0 0 0 0 0 0 0 0 0 0 0 0 0 0 0 0 0 0 0 0 0 0 0 0 0 0 0 0 0 0 0 0 0 0 0 0 0 0 0 0 0 0 0 0 0 0 0 0 0 0 0 0 0 0 0 0 0 0 0 0 0 0 0 0 0 0 0 0 0 0 0 0 0 0 0 0 0 0 0 0 0 0 0 0 0 0 0 0 0 0 0 0 0 0 0 0 0 0 0 0 0 0 0 0 0 0 0 0 0 0 0 0 0 0 0 0 0 0 0 0 0 0 0 0 0 0 0 0 0 0 0 0 0 0 0 0 0 0 0 0 0 0 0 0 0 0 0 0 0 0 0 0 0 0 0 0 0 0 0 0 0 0 0 0 0 0 0 0 0 0 0 0 0 0 0 0 0 0 0 0 0 0 0 0 0 0 0 0 0 0 0 0 0 0 0 0 0 0 0 0 0 0 0 0 0 0 0 0 0 0 0 0 0 0 0 0 0 0 0 0 0 0 0 0 0 0 0 0 0 0 0 0 0 0 0 0 0 0 0 0 0 0 0 0 0 0 0 0 0 0 0 0 0 0 0 0 0 0 0 0 0 0
